{
    "asset" : {
        "generator" : "Khronos glTF Blender I/O v1.8.19",
        "version" : "2.0"
    },
    "scene" : 0,
    "scenes" : [
        {
            "name" : "Scene",
            "nodes" : [
                0
            ]
        }
    ],
    "nodes" : [
        {
            "mesh" : 0,
            "name" : "Cloth"
        }
    ],
    "materials" : [
        {
            "name" : "Single Jersey Copy 1_FRONT_3025",
            "normalTexture" : {
                "index" : 0
            },
            "pbrMetallicRoughness" : {
                "baseColorTexture" : {
                    "index" : 1
                }
            }
        },
        {
            "name" : "Single Jersey_FRONT_3016",
            "normalTexture" : {
                "index" : 2
            },
            "pbrMetallicRoughness" : {
                "baseColorTexture" : {
                    "index" : 3
                }
            }
        }
    ],
    "meshes" : [
        {
            "name" : "Cloth_mesh",
            "primitives" : [
                {
                    "attributes" : {
                        "POSITION" : 0,
                        "NORMAL" : 1,
                        "TEXCOORD_0" : 2
                    },
                    "indices" : 3,
                    "material" : 0
                },
                {
                    "attributes" : {
                        "POSITION" : 4,
                        "NORMAL" : 5,
                        "TEXCOORD_0" : 6
                    },
                    "indices" : 7,
                    "material" : 1
                }
            ]
        }
    ],
    "textures" : [
        {
            "sampler" : 0,
            "source" : 0
        },
        {
            "sampler" : 0,
            "source" : 1
        },
        {
            "sampler" : 0,
            "source" : 0
        },
        {
            "sampler" : 0,
            "source" : 1
        }
    ],
    "images" : [
        {
            "bufferView" : 4,
            "mimeType" : "image/png",
            "name" : "Image_1"
        },
        {
            "bufferView" : 5,
            "mimeType" : "image/png",
            "name" : "Image_0"
        }
    ],
    "accessors" : [
        {
            "bufferView" : 0,
            "componentType" : 5126,
            "count" : 948,
            "max" : [
                8.251131057739258,
                156.0253448486328,
                4.1296281814575195
            ],
            "min" : [
                -8.429765701293945,
                146.52407836914062,
                -9.859889030456543
            ],
            "type" : "VEC3"
        },
        {
            "bufferView" : 1,
            "componentType" : 5126,
            "count" : 948,
            "type" : "VEC3"
        },
        {
            "bufferView" : 2,
            "componentType" : 5126,
            "count" : 948,
            "type" : "VEC2"
        },
        {
            "bufferView" : 3,
            "componentType" : 5123,
            "count" : 4668,
            "type" : "SCALAR"
        },
        {
            "bufferView" : 6,
            "componentType" : 5126,
            "count" : 9053,
            "max" : [
                32.537654876708984,
                154.31179809570312,
                15.552911758422852
            ],
            "min" : [
                -32.651676177978516,
                86.43683624267578,
                -14.916325569152832
            ],
            "type" : "VEC3"
        },
        {
            "bufferView" : 7,
            "componentType" : 5126,
            "count" : 9053,
            "type" : "VEC3"
        },
        {
            "bufferView" : 8,
            "componentType" : 5126,
            "count" : 9053,
            "type" : "VEC2"
        },
        {
            "bufferView" : 9,
            "componentType" : 5123,
            "count" : 47436,
            "type" : "SCALAR"
        }
    ],
    "bufferViews" : [
        {
            "buffer" : 0,
            "byteLength" : 11376,
            "byteOffset" : 0
        },
        {
            "buffer" : 0,
            "byteLength" : 11376,
            "byteOffset" : 11376
        },
        {
            "buffer" : 0,
            "byteLength" : 7584,
            "byteOffset" : 22752
        },
        {
            "buffer" : 0,
            "byteLength" : 9336,
            "byteOffset" : 30336
        },
        {
            "buffer" : 0,
            "byteLength" : 90,
            "byteOffset" : 39672
        },
        {
            "buffer" : 0,
            "byteLength" : 90,
            "byteOffset" : 39764
        },
        {
            "buffer" : 0,
            "byteLength" : 108636,
            "byteOffset" : 39856
        },
        {
            "buffer" : 0,
            "byteLength" : 108636,
            "byteOffset" : 148492
        },
        {
            "buffer" : 0,
            "byteLength" : 72424,
            "byteOffset" : 257128
        },
        {
            "buffer" : 0,
            "byteLength" : 94872,
            "byteOffset" : 329552
        }
    ],
    "samplers" : [
        {
            "magFilter" : 9729,
            "minFilter" : 9987
        }
    ],
    "buffers" : [
        {
            "byteLength" : 424424,
            "uri" : "data:application/octet-stream;base64,"
        }
    ]
}
